<svg width="184" height="24" viewBox="0 0 184 24" fill="none" xmlns="http://www.w3.org/2000/svg">
<rect width="86" height="24" rx="4" fill="#F6F2FF"/>
<path d="M11.7275 11.9658H9.73486L9.72412 10.9829H11.4644C11.758 10.9829 12.0068 10.9399 12.2109 10.854C12.4186 10.7645 12.5762 10.6374 12.6836 10.4727C12.791 10.3044 12.8447 10.1021 12.8447 9.86572C12.8447 9.60433 12.7946 9.39128 12.6943 9.22656C12.5941 9.06185 12.4401 8.94189 12.2324 8.8667C12.0283 8.7915 11.7669 8.75391 11.4482 8.75391H10.1431V15.5H8.79492V7.67969H11.4482C11.8779 7.67969 12.2611 7.72087 12.5977 7.80322C12.9378 7.88558 13.2261 8.01449 13.4624 8.18994C13.7023 8.36182 13.8831 8.58024 14.0049 8.84521C14.1302 9.11019 14.1929 9.42529 14.1929 9.79053C14.1929 10.1128 14.1159 10.4082 13.9619 10.6768C13.8079 10.9417 13.5806 11.1584 13.2798 11.3267C12.979 11.495 12.6048 11.5952 12.1572 11.6274L11.7275 11.9658ZM11.6685 15.5H9.31055L9.91748 14.4312H11.6685C11.9728 14.4312 12.2271 14.381 12.4312 14.2808C12.6353 14.1769 12.7874 14.0355 12.8877 13.8564C12.9915 13.6738 13.0435 13.4608 13.0435 13.2173C13.0435 12.9631 12.9987 12.7428 12.9092 12.5566C12.8197 12.3669 12.6782 12.2218 12.4849 12.1216C12.2915 12.0177 12.0391 11.9658 11.7275 11.9658H10.2129L10.2236 10.9829H12.1948L12.501 11.3535C12.9307 11.3678 13.2834 11.4627 13.5591 11.6382C13.8384 11.8136 14.0461 12.041 14.1821 12.3203C14.3182 12.5996 14.3862 12.9004 14.3862 13.2227C14.3862 13.7204 14.277 14.1375 14.0586 14.4741C13.8438 14.8107 13.534 15.0667 13.1294 15.2422C12.7248 15.4141 12.2378 15.5 11.6685 15.5ZM22.2549 9.68848V10.7197H19.3867V9.68848H22.2549ZM19.6929 9.68848V15.5H18.3984V9.68848H19.6929ZM23.27 9.68848V15.5H21.9702V9.68848H23.27ZM25.9395 10.8057V17.7344H24.645V9.68848H25.8374L25.9395 10.8057ZM29.7261 12.5405V12.6533C29.7261 13.0758 29.6759 13.4679 29.5757 13.8296C29.479 14.1877 29.334 14.501 29.1406 14.7695C28.9508 15.0345 28.7163 15.2404 28.437 15.3872C28.1577 15.534 27.8354 15.6074 27.4702 15.6074C27.1086 15.6074 26.7917 15.5412 26.5195 15.4087C26.251 15.2726 26.0236 15.0811 25.8374 14.834C25.6512 14.5869 25.5008 14.2969 25.3862 13.9639C25.2752 13.6273 25.1965 13.2585 25.1499 12.8574V12.4224C25.1965 11.9963 25.2752 11.6095 25.3862 11.2622C25.5008 10.9149 25.6512 10.6159 25.8374 10.3652C26.0236 10.1146 26.251 9.92122 26.5195 9.78516C26.7881 9.64909 27.1014 9.58105 27.4595 9.58105C27.8247 9.58105 28.1488 9.65267 28.4316 9.7959C28.7145 9.93555 28.9526 10.1361 29.146 10.3975C29.3394 10.6553 29.4844 10.9668 29.5811 11.332C29.6777 11.6937 29.7261 12.0965 29.7261 12.5405ZM28.4316 12.6533V12.5405C28.4316 12.272 28.4066 12.0231 28.3564 11.7939C28.3063 11.5612 28.2275 11.3571 28.1201 11.1816C28.0127 11.0062 27.8748 10.8701 27.7065 10.7734C27.5418 10.6732 27.3431 10.623 27.1104 10.623C26.8812 10.623 26.6842 10.6624 26.5195 10.7412C26.3548 10.8164 26.217 10.922 26.106 11.0581C25.995 11.1942 25.909 11.3535 25.8481 11.5361C25.7873 11.7152 25.7443 11.9103 25.7192 12.1216V13.1636C25.7622 13.4214 25.8356 13.6577 25.9395 13.8726C26.0433 14.0874 26.1901 14.2593 26.3799 14.3882C26.5732 14.5135 26.8203 14.5762 27.1211 14.5762C27.3538 14.5762 27.5526 14.526 27.7173 14.4258C27.882 14.3255 28.0163 14.1877 28.1201 14.0122C28.2275 13.8332 28.3063 13.6273 28.3564 13.3945C28.4066 13.1618 28.4316 12.9147 28.4316 12.6533ZM32.1646 13.6094L34.4473 9.68848H35.7417V15.5H34.4473V11.5737L32.1646 15.5H30.8701V9.68848H32.1646V13.6094ZM36.8643 12.6587V12.5352C36.8643 12.1162 36.9251 11.7277 37.0469 11.3696C37.1686 11.008 37.3441 10.6947 37.5732 10.4297C37.806 10.1611 38.0889 9.95345 38.4219 9.80664C38.7585 9.65625 39.138 9.58105 39.5605 9.58105C39.9867 9.58105 40.3662 9.65625 40.6992 9.80664C41.0358 9.95345 41.3205 10.1611 41.5532 10.4297C41.786 10.6947 41.9632 11.008 42.085 11.3696C42.2067 11.7277 42.2676 12.1162 42.2676 12.5352V12.6587C42.2676 13.0776 42.2067 13.4661 42.085 13.8242C41.9632 14.1823 41.786 14.4956 41.5532 14.7642C41.3205 15.0291 41.0376 15.2368 40.7046 15.3872C40.3716 15.534 39.9938 15.6074 39.5713 15.6074C39.1452 15.6074 38.7638 15.534 38.4272 15.3872C38.0942 15.2368 37.8114 15.0291 37.5786 14.7642C37.3459 14.4956 37.1686 14.1823 37.0469 13.8242C36.9251 13.4661 36.8643 13.0776 36.8643 12.6587ZM38.1587 12.5352V12.6587C38.1587 12.9201 38.1855 13.1672 38.2393 13.3999C38.293 13.6326 38.3771 13.8368 38.4917 14.0122C38.6063 14.1877 38.7531 14.3255 38.9321 14.4258C39.1112 14.526 39.3242 14.5762 39.5713 14.5762C39.8112 14.5762 40.0189 14.526 40.1943 14.4258C40.3734 14.3255 40.5202 14.1877 40.6348 14.0122C40.7493 13.8368 40.8335 13.6326 40.8872 13.3999C40.9445 13.1672 40.9731 12.9201 40.9731 12.6587V12.5352C40.9731 12.2773 40.9445 12.0339 40.8872 11.8047C40.8335 11.5719 40.7476 11.366 40.6294 11.187C40.5148 11.008 40.368 10.8683 40.189 10.7681C40.0135 10.6642 39.804 10.6123 39.5605 10.6123C39.3171 10.6123 39.1058 10.6642 38.9268 10.7681C38.7513 10.8683 38.6063 11.008 38.4917 11.187C38.3771 11.366 38.293 11.5719 38.2393 11.8047C38.1855 12.0339 38.1587 12.2773 38.1587 12.5352ZM44.6523 10.8057V17.7344H43.3579V9.68848H44.5503L44.6523 10.8057ZM48.439 12.5405V12.6533C48.439 13.0758 48.3888 13.4679 48.2886 13.8296C48.1919 14.1877 48.0469 14.501 47.8535 14.7695C47.6637 15.0345 47.4292 15.2404 47.1499 15.3872C46.8706 15.534 46.5483 15.6074 46.1831 15.6074C45.8215 15.6074 45.5046 15.5412 45.2324 15.4087C44.9639 15.2726 44.7365 15.0811 44.5503 14.834C44.3641 14.5869 44.2137 14.2969 44.0991 13.9639C43.9881 13.6273 43.9093 13.2585 43.8628 12.8574V12.4224C43.9093 11.9963 43.9881 11.6095 44.0991 11.2622C44.2137 10.9149 44.3641 10.6159 44.5503 10.3652C44.7365 10.1146 44.9639 9.92122 45.2324 9.78516C45.501 9.64909 45.8143 9.58105 46.1724 9.58105C46.5376 9.58105 46.8617 9.65267 47.1445 9.7959C47.4274 9.93555 47.6655 10.1361 47.8589 10.3975C48.0522 10.6553 48.1973 10.9668 48.2939 11.332C48.3906 11.6937 48.439 12.0965 48.439 12.5405ZM47.1445 12.6533V12.5405C47.1445 12.272 47.1195 12.0231 47.0693 11.7939C47.0192 11.5612 46.9404 11.3571 46.833 11.1816C46.7256 11.0062 46.5877 10.8701 46.4194 10.7734C46.2547 10.6732 46.056 10.623 45.8232 10.623C45.5941 10.623 45.3971 10.6624 45.2324 10.7412C45.0677 10.8164 44.9299 10.922 44.8188 11.0581C44.7078 11.1942 44.6219 11.3535 44.561 11.5361C44.5002 11.7152 44.4572 11.9103 44.4321 12.1216V13.1636C44.4751 13.4214 44.5485 13.6577 44.6523 13.8726C44.7562 14.0874 44.903 14.2593 45.0928 14.3882C45.2861 14.5135 45.5332 14.5762 45.834 14.5762C46.0667 14.5762 46.2655 14.526 46.4302 14.4258C46.5949 14.3255 46.7292 14.1877 46.833 14.0122C46.9404 13.8332 47.0192 13.6273 47.0693 13.3945C47.1195 13.1618 47.1445 12.9147 47.1445 12.6533ZM50.8774 13.6094L53.1602 9.68848H54.4546V15.5H53.1602V11.5737L50.8774 15.5H49.583V9.68848H50.8774V13.6094ZM58.5205 9.68848V15.5H57.2207V9.68848H58.5205ZM60.4272 9.68848V10.709H55.3462V9.68848H60.4272ZM63.4565 15.6074C63.0269 15.6074 62.6383 15.5376 62.291 15.3979C61.9473 15.2547 61.6536 15.056 61.4102 14.8018C61.1702 14.5475 60.9858 14.2485 60.8569 13.9048C60.728 13.561 60.6636 13.1904 60.6636 12.793V12.5781C60.6636 12.1234 60.7298 11.7116 60.8623 11.3428C60.9948 10.974 61.1792 10.6589 61.4155 10.3975C61.6519 10.1325 61.9312 9.93018 62.2534 9.79053C62.5757 9.65088 62.9248 9.58105 63.3008 9.58105C63.7161 9.58105 64.0796 9.65088 64.3911 9.79053C64.7026 9.93018 64.9604 10.1271 65.1646 10.3813C65.3722 10.632 65.5262 10.931 65.6265 11.2783C65.7303 11.6257 65.7822 12.0088 65.7822 12.4277V12.981H61.292V12.0518H64.5039V11.9497C64.4967 11.717 64.4502 11.4985 64.3643 11.2944C64.2819 11.0903 64.1548 10.9256 63.9829 10.8003C63.811 10.675 63.5819 10.6123 63.2954 10.6123C63.0806 10.6123 62.889 10.6589 62.7207 10.752C62.556 10.8415 62.4181 10.9722 62.3071 11.144C62.1961 11.3159 62.1102 11.5236 62.0493 11.7671C61.992 12.007 61.9634 12.2773 61.9634 12.5781V12.793C61.9634 13.0472 61.9974 13.2835 62.0654 13.502C62.137 13.7168 62.2409 13.9048 62.377 14.0659C62.513 14.2271 62.6777 14.3542 62.8711 14.4473C63.0645 14.5368 63.2847 14.5815 63.5317 14.5815C63.8433 14.5815 64.1208 14.5189 64.3643 14.3936C64.6077 14.2682 64.819 14.091 64.998 13.8618L65.6802 14.5225C65.5549 14.7051 65.3919 14.8805 65.1914 15.0488C64.9909 15.2135 64.7456 15.3478 64.4556 15.4517C64.1691 15.5555 63.8361 15.6074 63.4565 15.6074ZM69.4238 9.68848V15.5H68.124V9.68848H69.4238ZM71.3306 9.68848V10.709H66.2495V9.68848H71.3306ZM74.3599 15.6074C73.9302 15.6074 73.5417 15.5376 73.1943 15.3979C72.8506 15.2547 72.557 15.056 72.3135 14.8018C72.0736 14.5475 71.8892 14.2485 71.7603 13.9048C71.6313 13.561 71.5669 13.1904 71.5669 12.793V12.5781C71.5669 12.1234 71.6331 11.7116 71.7656 11.3428C71.8981 10.974 72.0825 10.6589 72.3188 10.3975C72.5552 10.1325 72.8345 9.93018 73.1567 9.79053C73.479 9.65088 73.8281 9.58105 74.2041 9.58105C74.6195 9.58105 74.9829 9.65088 75.2944 9.79053C75.606 9.93018 75.8638 10.1271 76.0679 10.3813C76.2756 10.632 76.4295 10.931 76.5298 11.2783C76.6336 11.6257 76.6855 12.0088 76.6855 12.4277V12.981H72.1953V12.0518H75.4072V11.9497C75.4001 11.717 75.3535 11.4985 75.2676 11.2944C75.1852 11.0903 75.0581 10.9256 74.8862 10.8003C74.7144 10.675 74.4852 10.6123 74.1987 10.6123C73.9839 10.6123 73.7923 10.6589 73.624 10.752C73.4593 10.8415 73.3215 10.9722 73.2104 11.144C73.0994 11.3159 73.0135 11.5236 72.9526 11.7671C72.8953 12.007 72.8667 12.2773 72.8667 12.5781V12.793C72.8667 13.0472 72.9007 13.2835 72.9688 13.502C73.0404 13.7168 73.1442 13.9048 73.2803 14.0659C73.4163 14.2271 73.5811 14.3542 73.7744 14.4473C73.9678 14.5368 74.188 14.5815 74.4351 14.5815C74.7466 14.5815 75.0241 14.5189 75.2676 14.3936C75.5111 14.2682 75.7223 14.091 75.9014 13.8618L76.5835 14.5225C76.4582 14.7051 76.2952 14.8805 76.0947 15.0488C75.8942 15.2135 75.6489 15.3478 75.3589 15.4517C75.0724 15.5555 74.7394 15.6074 74.3599 15.6074Z" fill="#856EC6"/>
<rect x="94.5" y="0.5" width="34" height="23" rx="3.5" fill="#FAFFFC"/>
<path d="M104 11.3333C105.473 11.3333 106.667 10.1394 106.667 8.66667C106.667 7.19391 105.473 6 104 6C102.527 6 101.333 7.19391 101.333 8.66667C101.333 10.1394 102.527 11.3333 104 11.3333Z" stroke="#96A09B" stroke-width="1.5" stroke-linecap="round" stroke-linejoin="round"/>
<path d="M108.667 6.08667C109.24 6.23354 109.749 6.56714 110.112 7.03488C110.475 7.50262 110.672 8.07789 110.672 8.67C110.672 9.26212 110.475 9.83739 110.112 10.3051C109.749 10.7729 109.24 11.1065 108.667 11.2533M112 18V16.6667C111.997 16.0781 111.799 15.5072 111.437 15.0429C111.075 14.5787 110.57 14.2471 110 14.1M100 18V16.6667C100 15.9594 100.281 15.2811 100.781 14.7811C101.281 14.281 101.959 14 102.667 14H105.333C106.041 14 106.719 14.281 107.219 14.7811C107.719 15.2811 108 15.9594 108 16.6667V18H100Z" stroke="#96A09B" stroke-width="1.5" stroke-linecap="round" stroke-linejoin="round"/>
<path d="M120.111 11.0044H120.884C121.185 11.0044 121.434 10.9525 121.631 10.8486C121.831 10.7448 121.98 10.6016 122.077 10.4189C122.173 10.2363 122.222 10.0269 122.222 9.79053C122.222 9.54346 122.177 9.33219 122.087 9.15674C122.001 8.9777 121.869 8.83984 121.69 8.74316C121.514 8.64648 121.291 8.59814 121.019 8.59814C120.789 8.59814 120.582 8.64469 120.396 8.73779C120.213 8.82731 120.068 8.95622 119.96 9.12451C119.853 9.28923 119.799 9.48617 119.799 9.71533H118.5C118.5 9.29997 118.609 8.93115 118.827 8.60889C119.046 8.28662 119.343 8.03418 119.719 7.85156C120.098 7.66536 120.524 7.57227 120.997 7.57227C121.502 7.57227 121.942 7.65641 122.318 7.82471C122.698 7.98942 122.993 8.23649 123.205 8.56592C123.416 8.89535 123.521 9.30355 123.521 9.79053C123.521 10.0125 123.47 10.2381 123.366 10.4673C123.262 10.6965 123.108 10.9059 122.904 11.0957C122.7 11.2819 122.445 11.4341 122.141 11.5522C121.837 11.6668 121.484 11.7241 121.083 11.7241H120.111V11.0044ZM120.111 12.0142V11.3052H121.083C121.541 11.3052 121.932 11.3589 122.254 11.4663C122.58 11.5737 122.845 11.7223 123.049 11.9121C123.253 12.0983 123.402 12.3114 123.495 12.5513C123.591 12.7912 123.64 13.0454 123.64 13.314C123.64 13.6792 123.573 14.005 123.441 14.2915C123.312 14.5744 123.128 14.8143 122.888 15.0112C122.648 15.2082 122.367 15.3568 122.044 15.457C121.726 15.5573 121.378 15.6074 121.002 15.6074C120.666 15.6074 120.344 15.5609 120.036 15.4678C119.728 15.3747 119.452 15.2368 119.208 15.0542C118.965 14.868 118.772 14.637 118.628 14.3613C118.489 14.082 118.419 13.7598 118.419 13.3945H119.713C119.713 13.6273 119.767 13.8332 119.875 14.0122C119.986 14.1877 120.139 14.3255 120.336 14.4258C120.537 14.526 120.766 14.5762 121.024 14.5762C121.296 14.5762 121.531 14.5278 121.728 14.4312C121.924 14.3345 122.075 14.1912 122.179 14.0015C122.286 13.8117 122.34 13.5825 122.34 13.314C122.34 13.0096 122.281 12.7625 122.163 12.5728C122.044 12.383 121.876 12.2433 121.658 12.1538C121.439 12.0607 121.181 12.0142 120.884 12.0142H120.111Z" fill="#414644"/>
<rect x="94.5" y="0.5" width="34" height="23" rx="3.5" stroke="#EBF3EF"/>
<rect x="137.5" y="0.5" width="46" height="23" rx="3.5" fill="#FAFFFC"/>
<path d="M150.333 6V8.66667C150.333 8.84348 150.403 9.01305 150.529 9.13807C150.654 9.2631 150.823 9.33333 151 9.33333H153.667" stroke="#96A09B" stroke-width="1.5" stroke-linecap="round" stroke-linejoin="round"/>
<path d="M147 12.6667H151M152.333 18H145.667C145.313 18 144.974 17.8595 144.724 17.6095C144.474 17.3594 144.333 17.0203 144.333 16.6667V7.33333C144.333 6.97971 144.474 6.64057 144.724 6.39052C144.974 6.14048 145.313 6 145.667 6H150.333L153.667 9.33333V16.6667C153.667 17.0203 153.526 17.3594 153.276 17.6095C153.026 17.8595 152.687 18 152.333 18ZM147 15.3333H151H147Z" stroke="#96A09B" stroke-width="1.5" stroke-linecap="round" stroke-linejoin="round"/>
<path d="M166.833 14.4688V15.5H161.591V14.6138L164.137 11.8369C164.416 11.5218 164.636 11.2497 164.797 11.0205C164.958 10.7913 165.071 10.5854 165.136 10.4028C165.204 10.2166 165.238 10.0358 165.238 9.86035C165.238 9.61328 165.191 9.39665 165.098 9.21045C165.009 9.02067 164.876 8.87207 164.701 8.76465C164.525 8.65365 164.312 8.59814 164.062 8.59814C163.771 8.59814 163.528 8.66081 163.331 8.78613C163.134 8.91146 162.986 9.08512 162.885 9.30713C162.785 9.52555 162.735 9.7762 162.735 10.0591H161.44C161.44 9.60433 161.544 9.18896 161.752 8.81299C161.96 8.43343 162.26 8.13265 162.654 7.91064C163.048 7.68506 163.523 7.57227 164.078 7.57227C164.6 7.57227 165.044 7.65999 165.41 7.83545C165.775 8.0109 166.052 8.25977 166.242 8.58203C166.436 8.9043 166.532 9.28564 166.532 9.72607C166.532 9.96956 166.493 10.2113 166.414 10.4512C166.335 10.6911 166.222 10.931 166.076 11.1709C165.932 11.4072 165.762 11.6453 165.565 11.8853C165.368 12.1216 165.152 12.3615 164.916 12.605L163.224 14.4688H166.833ZM169.202 11.8638L168.17 11.6113L168.595 7.67969H172.811V8.77539H169.669L169.454 10.6929C169.576 10.6213 169.744 10.5514 169.959 10.4834C170.174 10.4118 170.419 10.376 170.695 10.376C171.064 10.376 171.393 10.4368 171.683 10.5586C171.977 10.6768 172.226 10.8504 172.43 11.0796C172.634 11.3052 172.79 11.5809 172.897 11.9067C173.004 12.229 173.058 12.5924 173.058 12.9971C173.058 13.3587 173.004 13.6971 172.897 14.0122C172.793 14.3273 172.636 14.6048 172.424 14.8447C172.213 15.0846 171.946 15.2726 171.624 15.4087C171.305 15.5412 170.928 15.6074 170.491 15.6074C170.165 15.6074 169.852 15.5609 169.551 15.4678C169.254 15.3711 168.987 15.2297 168.75 15.0435C168.514 14.8537 168.324 14.6209 168.181 14.3452C168.038 14.0659 167.956 13.7454 167.934 13.3838H169.202C169.234 13.638 169.304 13.8547 169.411 14.0337C169.522 14.2091 169.669 14.3434 169.852 14.4365C170.034 14.5296 170.245 14.5762 170.485 14.5762C170.704 14.5762 170.892 14.5386 171.049 14.4634C171.207 14.3846 171.338 14.2736 171.441 14.1304C171.549 13.9836 171.628 13.8117 171.678 13.6147C171.731 13.4178 171.758 13.1994 171.758 12.9595C171.758 12.7303 171.728 12.5208 171.667 12.3311C171.61 12.1413 171.522 11.9766 171.404 11.8369C171.289 11.6973 171.144 11.5898 170.969 11.5146C170.793 11.4359 170.591 11.3965 170.362 11.3965C170.054 11.3965 169.818 11.4412 169.653 11.5308C169.492 11.6203 169.341 11.7313 169.202 11.8638ZM175.454 11.8638L174.422 11.6113L174.847 7.67969H179.063V8.77539H175.921L175.706 10.6929C175.828 10.6213 175.996 10.5514 176.211 10.4834C176.426 10.4118 176.671 10.376 176.947 10.376C177.316 10.376 177.645 10.4368 177.935 10.5586C178.229 10.6768 178.478 10.8504 178.682 11.0796C178.886 11.3052 179.042 11.5809 179.149 11.9067C179.256 12.229 179.31 12.5924 179.31 12.9971C179.31 13.3587 179.256 13.6971 179.149 14.0122C179.045 14.3273 178.888 14.6048 178.676 14.8447C178.465 15.0846 178.198 15.2726 177.876 15.4087C177.557 15.5412 177.18 15.6074 176.743 15.6074C176.417 15.6074 176.104 15.5609 175.803 15.4678C175.506 15.3711 175.239 15.2297 175.002 15.0435C174.766 14.8537 174.576 14.6209 174.433 14.3452C174.29 14.0659 174.208 13.7454 174.186 13.3838H175.454C175.486 13.638 175.556 13.8547 175.663 14.0337C175.774 14.2091 175.921 14.3434 176.104 14.4365C176.286 14.5296 176.497 14.5762 176.737 14.5762C176.956 14.5762 177.144 14.5386 177.301 14.4634C177.459 14.3846 177.59 14.2736 177.693 14.1304C177.801 13.9836 177.88 13.8117 177.93 13.6147C177.983 13.4178 178.01 13.1994 178.01 12.9595C178.01 12.7303 177.98 12.5208 177.919 12.3311C177.862 12.1413 177.774 11.9766 177.656 11.8369C177.541 11.6973 177.396 11.5898 177.221 11.5146C177.045 11.4359 176.843 11.3965 176.614 11.3965C176.306 11.3965 176.069 11.4412 175.905 11.5308C175.744 11.6203 175.593 11.7313 175.454 11.8638Z" fill="#414644"/>
<rect x="137.5" y="0.5" width="46" height="23" rx="3.5" stroke="#EBF3EF"/>
</svg>
